<mxfile host="app.diagrams.net" modified="2023-05-22T08:36:24.971Z" agent="Mozilla/5.0 (Windows NT 10.0; Win64; x64) AppleWebKit/537.36 (KHTML, like Gecko) Chrome/113.0.0.0 Safari/537.36 Edg/113.0.1774.50" etag="0IvyLZKgm-SIpCZXMRNy" version="21.3.0" type="github">
  <diagram name="第 1 页" id="goT4AeslIS1NWo1EyV7J">
    <mxGraphModel dx="1186" dy="788" grid="1" gridSize="10" guides="1" tooltips="1" connect="1" arrows="1" fold="1" page="1" pageScale="1" pageWidth="1169" pageHeight="827" math="0" shadow="0">
      <root>
        <mxCell id="0" />
        <mxCell id="1" parent="0" />
        <mxCell id="6NI-4KbY0bSnlb6Eag3S-4" value="收到消息推送请求" style="ellipse;whiteSpace=wrap;html=1;" vertex="1" parent="1">
          <mxGeometry x="140" y="190" width="110" height="60" as="geometry" />
        </mxCell>
        <mxCell id="6NI-4KbY0bSnlb6Eag3S-6" value="" style="curved=1;endArrow=classic;html=1;rounded=0;" edge="1" parent="1">
          <mxGeometry width="50" height="50" relative="1" as="geometry">
            <mxPoint x="195" y="270" as="sourcePoint" />
            <mxPoint x="155" y="410" as="targetPoint" />
            <Array as="points">
              <mxPoint x="235" y="410" />
              <mxPoint x="185" y="360" />
            </Array>
          </mxGeometry>
        </mxCell>
        <mxCell id="6NI-4KbY0bSnlb6Eag3S-7" value="接入层" style="rounded=1;whiteSpace=wrap;html=1;" vertex="1" parent="1">
          <mxGeometry x="60" y="420" width="120" height="60" as="geometry" />
        </mxCell>
        <mxCell id="6NI-4KbY0bSnlb6Eag3S-8" value="负责参数校验、参数拼装" style="rounded=0;whiteSpace=wrap;html=1;" vertex="1" parent="1">
          <mxGeometry x="50" y="500" width="140" height="40" as="geometry" />
        </mxCell>
        <mxCell id="6NI-4KbY0bSnlb6Eag3S-9" value="" style="endArrow=classic;html=1;rounded=0;" edge="1" parent="1">
          <mxGeometry width="50" height="50" relative="1" as="geometry">
            <mxPoint x="210" y="450" as="sourcePoint" />
            <mxPoint x="290" y="450" as="targetPoint" />
          </mxGeometry>
        </mxCell>
        <mxCell id="6NI-4KbY0bSnlb6Eag3S-10" value="消息队列" style="rounded=1;whiteSpace=wrap;html=1;" vertex="1" parent="1">
          <mxGeometry x="310" y="420" width="120" height="60" as="geometry" />
        </mxCell>
        <mxCell id="6NI-4KbY0bSnlb6Eag3S-11" value="负责将请求异步处理、削弱流量峰值" style="rounded=0;whiteSpace=wrap;html=1;" vertex="1" parent="1">
          <mxGeometry x="300" y="500" width="140" height="40" as="geometry" />
        </mxCell>
        <mxCell id="6NI-4KbY0bSnlb6Eag3S-12" value="" style="endArrow=classic;html=1;rounded=0;" edge="1" parent="1">
          <mxGeometry width="50" height="50" relative="1" as="geometry">
            <mxPoint x="460" y="449.5" as="sourcePoint" />
            <mxPoint x="540" y="449.5" as="targetPoint" />
          </mxGeometry>
        </mxCell>
        <mxCell id="6NI-4KbY0bSnlb6Eag3S-13" value="逻辑处理层" style="rounded=1;whiteSpace=wrap;html=1;" vertex="1" parent="1">
          <mxGeometry x="560" y="420" width="120" height="60" as="geometry" />
        </mxCell>
        <mxCell id="6NI-4KbY0bSnlb6Eag3S-14" value="负责消息去重、夜间屏蔽、流量限流" style="rounded=0;whiteSpace=wrap;html=1;" vertex="1" parent="1">
          <mxGeometry x="550" y="500" width="140" height="40" as="geometry" />
        </mxCell>
        <mxCell id="6NI-4KbY0bSnlb6Eag3S-15" value="" style="endArrow=classic;html=1;rounded=0;" edge="1" parent="1">
          <mxGeometry width="50" height="50" relative="1" as="geometry">
            <mxPoint x="700" y="449.5" as="sourcePoint" />
            <mxPoint x="880" y="450" as="targetPoint" />
          </mxGeometry>
        </mxCell>
        <mxCell id="6NI-4KbY0bSnlb6Eag3S-16" value="判断消息的渠道账号，调用不同下发渠道" style="edgeLabel;html=1;align=center;verticalAlign=middle;resizable=0;points=[];" vertex="1" connectable="0" parent="6NI-4KbY0bSnlb6Eag3S-15">
          <mxGeometry x="0.325" y="2" relative="1" as="geometry">
            <mxPoint x="-29" y="-18" as="offset" />
          </mxGeometry>
        </mxCell>
        <mxCell id="6NI-4KbY0bSnlb6Eag3S-17" value="消息真正下发层" style="rounded=1;whiteSpace=wrap;html=1;" vertex="1" parent="1">
          <mxGeometry x="900" y="420" width="120" height="60" as="geometry" />
        </mxCell>
        <mxCell id="6NI-4KbY0bSnlb6Eag3S-18" value="实现了不同渠道的消息推送" style="rounded=0;whiteSpace=wrap;html=1;" vertex="1" parent="1">
          <mxGeometry x="885" y="505" width="150" height="30" as="geometry" />
        </mxCell>
      </root>
    </mxGraphModel>
  </diagram>
</mxfile>
